# Blender v2.78 (sub 0) OBJ File: ''
# www.blender.org
mtllib Barriere.mtl
o Cube
v -1.022497 0.198191 0.374231
v -1.022497 0.198191 -0.374231
v 1.022497 0.198191 -0.374231
v 1.022497 0.198191 0.374231
v -1.022497 -0.198191 0.374231
v -1.022496 -0.198191 -0.374231
v 1.022497 -0.198191 -0.374231
v 1.022497 -0.198191 0.374231
v -0.015777 0.514945 0.005774
v -0.015777 0.514945 -0.005774
v 0.015777 0.514945 0.005774
v 0.015777 0.514945 -0.005774
vt 0.2861 0.0001
vt 0.4716 0.0640
vt 0.3213 0.2070
vt 0.3174 0.2057
vt 0.2085 0.7915
vt 0.2085 0.5831
vt 0.4169 0.5831
vt 0.4169 0.7915
vt 0.2085 0.9999
vt 0.4169 0.9999
vt 0.6252 0.7915
vt 0.6252 0.5831
vt 0.4169 0.3748
vt 0.2085 0.3748
vt 0.0001 0.7915
vt 0.0001 0.5831
vt 0.3197 0.2106
vt 0.3161 0.2095
vt 0.5125 0.2212
vt 0.1176 0.2124
vt 0.3142 0.2061
vn 0.3001 -0.9539 0.0000
vn 0.0000 1.0000 0.0000
vn 1.0000 0.0000 0.0000
vn -0.0000 -0.0000 1.0000
vn -1.0000 -0.0000 -0.0000
vn 0.0000 0.0000 -1.0000
vn 0.0000 -1.0000 -0.0000
vn -0.3001 -0.9539 -0.0000
vn -0.0000 -0.7583 0.6519
vn 0.0000 -0.7583 -0.6519
usemtl Material
s off
f 1/1/1 2/2/1 10/3/1 9/4/1
f 5/5/2 8/6/2 7/7/2 6/8/2
f 1/9/3 5/5/3 6/8/3 2/10/3
f 2/11/4 6/8/4 7/7/4 3/12/4
f 3/13/5 7/7/5 8/6/5 4/14/5
f 5/5/6 1/15/6 4/16/6 8/6/6
f 9/4/7 10/3/7 12/17/7 11/18/7
f 3/13/8 4/14/8 11/18/8 12/17/8
f 2/19/9 3/13/9 12/17/9 10/3/9
f 4/14/10 1/20/10 9/21/10 11/18/10
